<svg width="128" height="128" viewBox="0 0 128 128" fill="none" xmlns="http://www.w3.org/2000/svg">
    <rect width="128" height="128" rx="8" fill="#F3F4F6"/>
    <path d="M64 48C60.6863 48 58 50.6863 58 54C58 57.3137 60.6863 60 64 60C67.3137 60 70 57.3137 70 54C70 50.6863 67.3137 48 64 48Z" fill="#9CA3AF"/>
    <path fill-rule="evenodd" clip-rule="evenodd" d="M44 36C39.5817 36 36 39.5817 36 44V84C36 88.4183 39.5817 92 44 92H84C88.4183 92 92 88.4183 92 84V44C92 39.5817 88.4183 36 84 36H44ZM84 40H44C41.7909 40 40 41.7909 40 44V74.8L52.4 62.4C53.5598 61.2402 55.4402 61.2402 56.6 62.4L64 69.8L75.4 58.4C76.5598 57.2402 78.4402 57.2402 79.6 58.4L88 66.8V44C88 41.7909 86.2091 40 84 40ZM88 73.2L77.8 63L66.4 74.4C65.2402 75.5598 63.3598 75.5598 62.2 74.4L54.8 67L44.8 77C41.9493 79.8507 40 83.4 40 84C40 86.2091 41.7909 88 44 88H84C86.2091 88 88 86.2091 88 84V73.2Z" fill="#9CA3AF"/>
</svg>
